<svg width="32" height="36" viewBox="0 0 32 36" fill="none" xmlns="http://www.w3.org/2000/svg">
<path d="M3.46507 23.75L21.9801 34.3683C22.9819 34.9469 24.1191 35.2499 25.276 35.2467C26.4329 35.2436 27.5684 34.9343 28.567 34.3502C29.5657 33.7662 30.392 32.9283 30.9621 31.9216C31.5321 30.9148 31.8255 29.7752 31.8126 28.6183L31.8126 7.30499C31.8126 5.5665 31.122 3.89921 29.8927 2.66991C28.6634 1.44061 26.9961 0.749992 25.2576 0.749992C24.1067 0.751944 22.9766 1.05596 21.9801 1.63166L3.46507 12.25C2.47021 12.8258 1.64425 13.6531 1.07004 14.6488C0.49583 15.6446 0.193566 16.7739 0.193566 17.9233C0.193566 19.0728 0.49583 20.2021 1.07004 21.1978C1.64425 22.1936 2.47021 23.0209 3.46507 23.5967V23.75ZM5.38174 15.7192L23.8967 4.94749C24.3117 4.71231 24.7806 4.58869 25.2576 4.58869C25.7346 4.58869 26.2034 4.71231 26.6184 4.94749C27.0322 5.18641 27.3758 5.53006 27.6147 5.9439C27.8536 6.35773 27.9793 6.82716 27.9792 7.30499L27.9792 28.695C27.9793 29.1728 27.8536 29.6423 27.6147 30.0561C27.3758 30.4699 27.0322 30.8136 26.6184 31.0525C26.2017 31.2841 25.7343 31.4092 25.2576 31.4167C24.7812 31.4069 24.3143 31.2819 23.8967 31.0525L5.38174 20.3575C4.96778 20.1187 4.62399 19.7751 4.38497 19.3612C4.14594 18.9474 4.0201 18.4779 4.0201 18C4.0201 17.5221 4.14594 17.0526 4.38497 16.6388C4.62399 16.2249 4.96778 15.8813 5.38174 15.6425V15.7192Z" fill="#7856CE"/>
</svg>
