<svg width="32" height="36" viewBox="0 0 32 36" fill="none" xmlns="http://www.w3.org/2000/svg">
<path d="M28.5349 12.25L10.0199 1.63168C9.01805 1.05315 7.88091 0.750082 6.72401 0.75326C5.5671 0.756437 4.43165 1.06575 3.43297 1.64977C2.43429 2.23379 1.60797 3.07172 1.03793 4.07845C0.4679 5.08518 0.174461 6.22484 0.187423 7.38168V28.695C0.187423 30.4335 0.878037 32.1008 2.10734 33.3301C3.33664 34.5594 5.00393 35.25 6.74242 35.25C7.89326 35.2481 9.02343 34.944 10.0199 34.3683L28.5349 23.75C29.5298 23.1742 30.3558 22.3469 30.93 21.3512C31.5042 20.3554 31.8064 19.2261 31.8064 18.0767C31.8064 16.9272 31.5042 15.7979 30.93 14.8022C30.3558 13.8064 29.5298 12.9791 28.5349 12.4033V12.25ZM26.6183 20.2808L8.10326 31.0525C7.68827 31.2877 7.21942 31.4113 6.74242 31.4113C6.26543 31.4113 5.79658 31.2877 5.38159 31.0525C4.96778 30.8136 4.62415 30.4699 4.38527 30.0561C4.14639 29.6423 4.02067 29.1728 4.02076 28.695V7.30501C4.02067 6.82718 4.14639 6.35775 4.38527 5.94391C4.62415 5.53008 4.96778 5.18642 5.38159 4.94751C5.79828 4.71589 6.26574 4.5908 6.74242 4.58334C7.21878 4.59312 7.68569 4.71807 8.10326 4.94751L26.6183 15.6425C27.0322 15.8813 27.376 16.2249 27.615 16.6388C27.8541 17.0526 27.9799 17.5221 27.9799 18C27.9799 18.4779 27.8541 18.9474 27.615 19.3612C27.376 19.7751 27.0322 20.1187 26.6183 20.3575V20.2808Z" fill="#7856CE"/>
</svg>
