<svg width="35" height="35" viewBox="0 0 35 35" fill="none" xmlns="http://www.w3.org/2000/svg">
<path d="M17.4321 0.717865C8.03295 0.717865 0.342773 8.40804 0.342773 17.8071C0.342773 27.2063 8.03295 34.8964 17.4321 34.8964C26.8312 34.8964 34.5213 27.2063 34.5213 17.8071C34.5213 8.40804 26.8312 0.717865 17.4321 0.717865ZM23.7551 19.0034C23.0715 19.687 22.0462 19.687 21.3626 19.0034L19.141 16.7818V22.9339C19.141 23.9593 18.4574 24.6429 17.4321 24.6429C16.4067 24.6429 15.7231 23.9593 15.7231 22.9339V16.7818L13.5015 19.0034C12.818 19.687 11.7926 19.687 11.109 19.0034C10.4255 18.3198 10.4255 17.2945 11.109 16.6109L16.2358 11.4841C16.9194 10.8005 17.9447 10.8005 18.6283 11.4841L23.7551 16.6109C24.4387 17.2945 24.4387 18.3198 23.7551 19.0034Z" fill="#48C53D"/>
</svg>
