<svg width="26" height="24" viewBox="0 0 26 24" fill="none" xmlns="http://www.w3.org/2000/svg">
<path d="M15.05 8.17499L14.6875 10.3375C14.6273 10.7005 14.6718 11.0732 14.8157 11.4119C14.9596 11.7506 15.1969 12.0413 15.5 12.25C15.7836 12.4566 16.1207 12.5771 16.4709 12.597C16.8212 12.617 17.1698 12.5356 17.475 12.3625L19.25 11.35L21.05 12.3375C21.35 12.509 21.6925 12.5918 22.0377 12.5764C22.3829 12.5609 22.7166 12.4477 23 12.25C23.2942 12.0401 23.5239 11.7522 23.6631 11.4186C23.8022 11.0851 23.8453 10.7192 23.7875 10.3625L23.425 8.19999L24.925 6.67499C25.1725 6.4234 25.3461 6.10859 25.4268 5.76499C25.5075 5.42139 25.4922 5.06222 25.3825 4.72674C25.2728 4.39127 25.073 4.0924 24.805 3.86282C24.5369 3.63323 24.2109 3.48177 23.8625 3.42499L21.8375 3.12499L20.925 1.18749C20.7743 0.863641 20.5343 0.589568 20.2331 0.397524C19.9319 0.20548 19.5822 0.103455 19.225 0.103455C18.8678 0.103455 18.5181 0.20548 18.2169 0.397524C17.9157 0.589568 17.6757 0.863641 17.525 1.18749L16.6125 3.12499L14.5875 3.42499C14.2391 3.48177 13.9131 3.63323 13.645 3.86282C13.377 4.0924 13.1772 4.39127 13.0675 4.72674C12.9578 5.06222 12.9425 5.42139 13.0232 5.76499C13.1039 6.10859 13.2775 6.4234 13.525 6.67499L15.05 8.17499ZM17.3375 5.51249C17.644 5.46603 17.9344 5.34479 18.1829 5.15948C18.4314 4.97417 18.6305 4.7305 18.7625 4.44999L19.25 3.41249L19.7375 4.44999C19.8714 4.73029 20.0708 4.97428 20.3188 5.16137C20.5668 5.34846 20.8562 5.47317 21.1625 5.52499L22.4125 5.69999L21.5 6.62499C21.2885 6.84427 21.1309 7.10979 21.0398 7.40052C20.9487 7.69125 20.9265 7.9992 20.975 8.29999L21.175 9.54999L20.1875 9.01249C19.9123 8.85925 19.6025 8.77881 19.2875 8.77881C18.9725 8.77881 18.6627 8.85925 18.3875 9.01249L17.4 9.54999L17.6 8.29999C17.6495 8.00111 17.6277 7.69478 17.5365 7.4059C17.4453 7.11702 17.2872 6.85374 17.075 6.63749L16.1625 5.69999L17.3375 5.51249ZM24.25 15.075C23.9185 15.075 23.6005 15.2067 23.3661 15.4411C23.1317 15.6755 23 15.9935 23 16.325V20.075C23 20.4065 22.8683 20.7245 22.6339 20.9589C22.3995 21.1933 22.0815 21.325 21.75 21.325H4.25C3.91848 21.325 3.60054 21.1933 3.36612 20.9589C3.1317 20.7245 3 20.4065 3 20.075V8.08749L10.35 15.4375C10.6924 15.7862 11.101 16.063 11.5517 16.2519C12.0024 16.4408 12.4863 16.5379 12.975 16.5375H13.3125C13.6422 16.5089 13.9471 16.3507 14.1603 16.0976C14.3735 15.8445 14.4777 15.5173 14.45 15.1875C14.4359 15.0231 14.3893 14.8631 14.3131 14.7168C14.2368 14.5705 14.1323 14.4407 14.0057 14.3349C13.879 14.2292 13.7327 14.1496 13.5751 14.1007C13.4175 14.0518 13.2518 14.0345 13.0875 14.05C12.9111 14.0681 12.7328 14.046 12.5661 13.9854C12.3994 13.9248 12.2486 13.8272 12.125 13.7L4.7625 6.32499H9.25C9.58152 6.32499 9.89946 6.19329 10.1339 5.95887C10.3683 5.72445 10.5 5.40651 10.5 5.07499C10.5 4.74347 10.3683 4.42553 10.1339 4.19111C9.89946 3.95669 9.58152 3.82499 9.25 3.82499H4.25C3.25544 3.82499 2.30161 4.22008 1.59835 4.92334C0.895088 5.6266 0.5 6.58043 0.5 7.57499V20.075C0.5 21.0696 0.895088 22.0234 1.59835 22.7266C2.30161 23.4299 3.25544 23.825 4.25 23.825H21.75C22.7446 23.825 23.6984 23.4299 24.4017 22.7266C25.1049 22.0234 25.5 21.0696 25.5 20.075V16.325C25.5 15.9935 25.3683 15.6755 25.1339 15.4411C24.8995 15.2067 24.5815 15.075 24.25 15.075Z" fill="black"/>
</svg>
