<svg width="35" height="35" viewBox="0 0 35 35" fill="none" xmlns="http://www.w3.org/2000/svg">
<path d="M17.4317 34.8964C26.8308 34.8964 34.521 27.2063 34.521 17.8072C34.521 8.40805 26.8308 0.717869 17.4317 0.717869C8.0326 0.717869 0.342427 8.40805 0.342427 17.8072C0.342427 27.2063 8.0326 34.8964 17.4317 34.8964ZM11.1087 16.6109C11.7922 15.9273 12.8176 15.9273 13.5012 16.6109L15.7228 18.8325V12.6804C15.7228 11.655 16.4064 10.9714 17.4317 10.9714C18.4571 10.9714 19.1406 11.655 19.1406 12.6804L19.1406 18.8325L21.3622 16.6109C22.0458 15.9273 23.0712 15.9273 23.7547 16.6109C24.4383 17.2945 24.4383 18.3198 23.7547 19.0034L18.628 24.1302C17.9444 24.8138 16.919 24.8138 16.2355 24.1302L11.1087 19.0034C10.4251 18.3198 10.4251 17.2945 11.1087 16.6109Z" fill="#F71E1E"/>
</svg>
