<svg width="41" height="41" viewBox="0 0 41 41" fill="none" xmlns="http://www.w3.org/2000/svg">
<path d="M20.5 0.0833435C16.5402 0.0908671 12.6679 1.24977 9.35503 3.41889C6.04211 5.58802 3.43147 8.67374 1.84111 12.3002C0.250741 15.9267 -0.250714 19.9374 0.397822 23.8438C1.04636 27.7502 2.81689 31.3837 5.49377 34.3017V34.3017C7.40563 36.3741 9.72603 38.028 12.3087 39.1592C14.8914 40.2905 17.6804 40.8745 20.5 40.8745C23.3196 40.8745 26.1086 40.2905 28.6913 39.1592C31.274 38.028 33.5944 36.3741 35.5063 34.3017V34.3017C38.1831 31.3837 39.9537 27.7502 40.6022 23.8438C41.2508 19.9374 40.7493 15.9267 39.1589 12.3002C37.5686 8.67374 34.9579 5.58802 31.645 3.41889C28.3321 1.24977 24.4599 0.0908671 20.5 0.0833435V0.0833435ZM20.5 36.8333C16.2706 36.8269 12.2086 35.1802 9.16877 32.2396C10.0917 29.9928 11.6617 28.0711 13.6793 26.7187C15.6969 25.3663 18.0711 24.6442 20.5 24.6442C22.929 24.6442 25.3031 25.3663 27.3207 26.7187C29.3383 28.0711 30.9083 29.9928 31.8313 32.2396C28.7914 35.1802 24.7294 36.8269 20.5 36.8333ZM16.4167 16.4167C16.4167 15.6091 16.6562 14.8196 17.1049 14.1481C17.5535 13.4766 18.1913 12.9532 18.9374 12.6442C19.6835 12.3351 20.5045 12.2542 21.2966 12.4118C22.0887 12.5694 22.8163 12.9583 23.3874 13.5293C23.9584 14.1004 24.3473 14.828 24.5049 15.6201C24.6624 16.4121 24.5816 17.2332 24.2725 17.9793C23.9635 18.7254 23.4401 19.3632 22.7686 19.8118C22.0971 20.2605 21.3076 20.5 20.5 20.5C19.4171 20.5 18.3784 20.0698 17.6127 19.304C16.8469 18.5383 16.4167 17.4996 16.4167 16.4167ZM34.6079 28.6667C32.7838 25.5465 29.9762 23.1195 26.625 21.7658C27.6646 20.5871 28.3419 19.1334 28.5758 17.5793C28.8096 16.0251 28.5901 14.4365 27.9434 13.004C27.2968 11.5716 26.2505 10.3561 24.9302 9.50352C23.6099 8.65094 22.0717 8.19744 20.5 8.19744C18.9284 8.19744 17.3901 8.65094 16.0698 9.50352C14.7495 10.3561 13.7032 11.5716 13.0566 13.004C12.41 14.4365 12.1904 16.0251 12.4243 17.5793C12.6581 19.1334 13.3355 20.5871 14.375 21.7658C11.0238 23.1195 8.21627 25.5465 6.3921 28.6667C4.93832 26.1903 4.1702 23.3715 4.16669 20.5C4.16669 16.1681 5.88751 12.0137 8.95061 8.9506C12.0137 5.88751 16.1681 4.16668 20.5 4.16668C24.8319 4.16668 28.9863 5.88751 32.0494 8.9506C35.1125 12.0137 36.8334 16.1681 36.8334 20.5C36.8298 23.3715 36.0617 26.1903 34.6079 28.6667V28.6667Z" fill="black"/>
</svg>
